<svg xmlns="http://www.w3.org/2000/svg" viewBox="0 0 700 175.1"><path fill="#fff" d="M79 0 0 174.8h94.6l11.7-27.9h26.8l11.7 27.9h104.1v-21.3l9.3 21.3H312l9.3-21.7v21.7h216.5l26.3-27.2 24.7 27.2 111.2.2-79.3-87.1L700 0H590.5l-25.6 26.6L541 0H305.5l-20.2 45.1L264.6 0h-94.4v20.6L159.7 0zm18.3 24.8h46.1l52.4 118.6V24.8h50.5l40.5 85 37.3-85h50.2v125.4h-30.6l-.2-98.3-44.6 98.3h-27.4l-44.8-98.3v98.3h-62.9l-11.9-28.1H87.5l-11.9 28.1H41.9zm305 0h124.3l38 41.1 39.3-41.1h38l-57.8 63.1 57.8 62.3h-39.7l-38-41.6-39.5 41.6H402.3zM119.7 46.1 98.5 96.2h42.4zM433 50.8v22.9h67.8v25.5H433v25h76.1l35.3-36.8-33.8-36.6z"/></svg>