<svg xmlns="http://www.w3.org/2000/svg" data-name="Layer 1" viewBox="0 0 48.4 20.1"><path d="M46.1 5.2 43.4 14l-2.7-8.8h-2.4l3.9 10.9-.2.7c-.4 1.1-.9 1.5-1.9 1.5h-.7v1.8h.9c2.2 0 3.3-.9 4.2-3.5l4-11.4h-2.3Zm-13-.1c-2.4 0-4.2 1.4-4.3 3.3h2.1c.2-.9 1-1.5 2.2-1.5s2.2.7 2.2 1.9v.8l-2.9.2c-2.7.2-4.1 1.3-4.1 3.2s1.5 3.2 3.6 3.2 2.8-.7 3.4-1.9v1.8h2.1V8.7c0-2.2-1.7-3.5-4.3-3.5Zm2.1 6.9c0 1.4-1.2 2.4-2.7 2.4s-2-.6-2-1.5.7-1.5 2.2-1.6l2.5-.2v.8ZM13 11.9c-.2-.1-2.1-1-2.1-3.3 0-1.9 1.5-2.9 1.7-3.1-1-1.4-2.4-1.6-2.9-1.6-.8 0-1.5.2-2.1.5q-.6.3-.9.3c-.3 0-.6-.1-1-.3-.5-.2-1-.4-1.6-.4-1.3 0-2.6.8-3.3 2-1.4 2.5-.4 6.1 1 8.1.7 1 1.5 2.1 2.5 2 .5 0 .8-.2 1.1-.3.4-.2.8-.4 1.5-.4s1 .2 1.4.3c.4.2.7.3 1.2.3 1.1 0 1.8-1 2.5-2 .7-1.1 1-2.1 1.1-2.3Zm9.8-10.8h-5.5V16h2.3v-5.1h3.2c2.9 0 4.9-2 4.9-4.9s-2-4.9-4.8-4.9ZM22.2 9h-2.6V3.1h2.6c2 0 3.1 1.1 3.1 3s-1.1 3-3.1 3ZM7.3 1.2c-.5.6-1 1.6-.9 2.5.9 0 1.8-.5 2.4-1.1.6-.7.9-1.6.8-2.6-.8 0-1.8.5-2.4 1.2Z" style="fill:#fff;fill-rule:evenodd;stroke-width:0"/></svg>