<svg xmlns="http://www.w3.org/2000/svg" viewBox="0 0 117.7 26.7"><path d="m7.6 13.9 5.8-.2 1.8-4.4h.4v9.2h-.4l-1.8-4.2-5.8-.2v11.5l2.6.2v.4H0v-.4l2.6-.2V1L0 .8V.4h19.2l.2 6.2H19L15.5 1 7.6.8zm12.5-.5c0-2 .3-3.7 1-5.4.7-1.6 1.7-3.1 2.9-4.2 1.2-1.2 2.6-2.1 4.2-2.8 1.6-.6 3.3-1 5-1s3.4.3 5 1c1.6.6 3 1.6 4.2 2.8s2.2 2.6 2.9 4.2 1 3.4 1 5.4-.3 3.7-1 5.4c-.7 1.6-1.7 3.1-2.9 4.2-1.2 1.2-2.6 2.1-4.2 2.8-1.6.6-3.3 1-5 1s-3.4-.3-5-1c-1.6-.6-3-1.6-4.2-2.8s-2.2-2.6-2.9-4.2-1-3.4-1-5.4m5.3 0c0 4.2.7 7.4 2 9.7 1.4 2.2 3.3 3.3 5.8 3.3s4.4-1.1 5.8-3.3 2-5.4 2-9.7-.7-7.4-2-9.7C37.6 1.5 35.7.4 33.2.4s-4.4 1.1-5.8 3.3-2 5.5-2 9.7M66 2.3 61.9.7V.3h9.8v.4l-4.9 1.6-6.8 8.1 10.8 15.3 2.4.2v.4H61.7v-.4l2.9-.2-8.4-12.4h-1.1v12.4l2.6.2v.4H47.5v-.4l2.6-.2V1L47.5.8V.4h10.2v.4l-2.6.2v12h2.3zm28.8 0-4-1.6V.3h8.7v.4l-4.2 1.6v14c0 3.4-.8 5.9-2.4 7.7q-2.4 2.7-6.9 2.7c-4.5 0-6.2-.9-7.9-2.8-1.7-1.8-2.6-4.4-2.6-7.6V1L72.9.8V.4h10.2v.4l-2.6.2v16.4c0 3 .6 5.1 1.9 6.4s3 2 5.1 2 2.3-.2 3.2-.7 1.7-1.1 2.3-1.9 1.1-1.8 1.4-2.9.5-2.4.5-3.7V2.3Zm6.3 24.2h-.4l-.2-8.2h.4l1.1 2.6c.7 1.8 1.6 3.2 2.8 4.1 1.1.9 2.4 1.3 3.9 1.3s1.3 0 1.9-.3c.6-.2 1.1-.5 1.6-.9s.8-.9 1.1-1.6c.3-.6.4-1.4.4-2.3s-.2-1.7-.5-2.3-.8-1.2-1.4-1.7-1.2-.9-1.9-1.3c-.7-.3-1.4-.7-2.1-1-.9-.4-1.9-.8-2.7-1.3-.9-.5-1.6-1-2.3-1.7-.7-.6-1.2-1.3-1.6-2.1s-.6-1.7-.6-2.8.2-2.1.6-3 1-1.6 1.8-2.2 1.7-1.1 2.8-1.4 2.3-.5 3.6-.5 2.3.2 3.4.5 2.1.8 2.9 1.5l.4-1.8h.4l.2 7.7h-.4l-1.1-2.7c-.7-1.7-1.5-2.9-2.4-3.7-.9-.7-2-1.1-3.3-1.1s-1 0-1.6.2-1.1.4-1.6.7-.9.8-1.2 1.4-.5 1.3-.5 2.1.2 1.4.5 2 .8 1.1 1.3 1.5 1.1.8 1.8 1.1c.6.3 1.3.6 2 .9.9.4 1.9.8 2.8 1.3s1.8 1.1 2.5 1.8c.8.7 1.3 1.5 1.8 2.4s.7 1.9.7 3.1-.2 2.5-.7 3.4c-.5 1-1.1 1.8-1.9 2.5s-1.8 1.2-2.9 1.5-2.3.5-3.5.5-2.6-.2-3.8-.7-2.3-1.1-3.4-1.8l-.3 2.3Z" style="fill:#d8232a"/></svg>