<svg xmlns="http://www.w3.org/2000/svg" data-name="Layer 1" viewBox="0 0 61.9 14.2"><path d="M3.1 13.9H0V0h3.1zM10.9 0h-3c0 2.6-1.1 4.9-3.1 6.5l-1.2.9L8.3 14h3.8L7.8 8C9.8 5.9 11 3.1 11 .1Zm4.9 13.9h-2.9V0h2.9zm8.9-9.6v.6c-.8-.6-1.8-.9-2.8-.9C19.2 4 17 6.3 17 9.1s2.2 5.1 4.9 5.1 2-.3 2.8-.9v.6h2.8V4.3zm0 4.8c0 1.4-1.1 2.5-2.5 2.5s-2.5-1.1-2.5-2.5 1.1-2.5 2.5-2.5 2.5 1.1 2.5 2.5m29.7-4.2v-.6h2.8v9.6h-2.8v-.6c-.8.6-1.8.9-2.8.9-2.7 0-4.9-2.3-4.9-5.1S48.9 4 51.6 4s2 .3 2.8.9m-2.6 6.7c1.4 0 2.5-1.1 2.5-2.5s-1.1-2.5-2.5-2.5-2.5 1.1-2.5 2.5 1.1 2.5 2.5 2.5M41.6 4c-1.1 0-2.2.4-2.9 1.3V4.2h-2.8v9.6h2.8V8.7c0-1.5 1-2.2 2.1-2.2s1.9.8 1.9 2.2v5.1h2.8V7.7c0-2.2-1.7-3.8-4-3.8Zm-9.7.3v1.3c.6-.8 1.6-1.3 2.8-1.3v2.8c-1.1 0-2.7.8-2.7 2.3v4.5h-2.9V4.3H32Zm26.5 8c0-1 .8-1.8 1.8-1.8s1.8.8 1.8 1.8-.8 1.8-1.8 1.8-1.8-.8-1.8-1.8" style="fill:#fff;fill-rule:evenodd;stroke-width:0"/></svg>