<svg xmlns="http://www.w3.org/2000/svg" viewBox="0 0 862.8 533.3"><path fill="#ff5f00" d="M303.1 57h256.7v419.3H303.1z"/><path fill="#eb001b" d="M329.5 266.7c0-81.8 37.5-159.1 101.8-209.6C315.6-33.9 148-13.8 57 102s-70.9 283.4 44.9 374.4c96.7 76 232.8 76 329.5 0-64.4-50.5-101.9-127.8-101.8-209.7Z"/><path fill="#f79e1b" d="M862.8 266.7c0 147.2-119.4 266.6-266.6 266.6-59.8 0-117.8-20.1-164.8-57 115.8-91 135.9-258.6 44.9-374.4-13.1-16.7-28.2-31.8-44.9-44.9 115.8-91 283.4-70.9 374.4 44.8 36.9 47 57 105 57 164.8Z"/></svg>