<svg xmlns="http://www.w3.org/2000/svg" data-name="Layer 1" viewBox="0 0 76.6 23.3"><defs><linearGradient id="a" x1="15.8" x2="10.8" y1="8.2" y2="18.1" gradientTransform="matrix(1 0 0 -1 0 25.4)" gradientUnits="userSpaceOnUse"><stop offset="0" stop-color="#ef2131"/><stop offset="1" stop-color="#fecf2c"/></linearGradient><linearGradient id="b" x1="20.3" x2="11.6" y1="16" y2="1" gradientTransform="matrix(1 0 0 -1 0 25.4)" gradientUnits="userSpaceOnUse"><stop offset="0" stop-color="#fbc52c"/><stop offset=".3" stop-color="#f87130"/><stop offset=".6" stop-color="#ef52e2"/><stop offset="1" stop-color="#661eec"/></linearGradient><linearGradient id="c" x1="7.7" x2="12.4" y1="19" y2="9.4" gradientTransform="matrix(1 0 0 -1 0 25.4)" gradientUnits="userSpaceOnUse"><stop offset="0" stop-color="#78f6d8"/><stop offset=".3" stop-color="#77d1f6"/><stop offset=".6" stop-color="#70a4f3"/><stop offset="1" stop-color="#661eec"/></linearGradient><linearGradient id="d" x1="3.1" x2="11.7" y1="11.5" y2="26.4" gradientTransform="matrix(1 0 0 -1 0 25.4)" gradientUnits="userSpaceOnUse"><stop offset="0" stop-color="#536eed"/><stop offset=".2" stop-color="#54c3ec"/><stop offset=".6" stop-color="#64d769"/><stop offset="1" stop-color="#fecf2c"/></linearGradient></defs><path d="M72.8 6.5c0-.3 0-.5.1-.8 0-.2.2-.4.4-.6s.4-.3.6-.4.5-.2.7-.2.5 0 .7.2c.2 0 .4.2.6.4s.3.4.4.6c0 .2.1.5.1.8s0 .5-.1.8c0 .2-.2.4-.4.6s-.4.3-.6.4-.5.2-.7.2-.5 0-.7-.2c-.2 0-.4-.2-.6-.4s-.3-.4-.4-.6c0-.2-.1-.5-.1-.8m.4 0c0 .2 0 .4.1.6 0 .2.2.4.3.5s.3.3.5.3.4.1.6.1.4 0 .6-.1c.2 0 .3-.2.5-.3.1-.1.2-.3.3-.5 0-.2.1-.4.1-.6s0-.4-.1-.6c0-.2-.2-.4-.3-.5s-.3-.3-.5-.3-.4-.1-.6-.1-.4 0-.6.1c-.2 0-.3.2-.5.3-.1.1-.2.3-.3.5 0 .2-.1.4-.1.6m.8-.9c0-.1 0-.2.2-.2h.6c.2 0 .3 0 .5.2.1.1.2.3.2.4v.4l-.1.1h-.1l.3.5v.1h-.1s-.2 0-.2-.1l-.3-.6h-.3V7c0 .1 0 .2-.2.2-.1 0-.2 0-.2-.2V5.3Zm.7.8h.2V6h-.5v.7h.3ZM59.3 7.7c.6 0 1.1 0 1.5.2s.7.3 1 .4c.2.1.3.2.4.4v.6l-.2.3c-.1.2-.2.3-.4.4H61c-.2 0-.4-.2-.7-.3s-.6-.2-1-.2-.7 0-.9.2-.3.4-.3.7.1.4.3.6.5.3.8.4.7.2 1.1.4c.4.1.7.3 1.1.5.3.2.6.5.8.8s.3.7.3 1.3 0 .8-.2 1.1-.4.6-.7.9c-.3.2-.7.4-1.1.6-.4.1-.9.2-1.4.2s-1.3-.1-1.8-.3q-.75-.3-1.2-.6c-.2-.1-.3-.3-.3-.4 0-.2 0-.4.2-.6l.2-.3c.1-.2.3-.3.4-.3.2 0 .3 0 .6.1.2.1.5.3.8.4s.7.2 1.2.2.7 0 .9-.2.3-.4.3-.7-.1-.4-.3-.6c-.2-.1-.5-.3-.8-.4-.4-.1-.7-.3-1.1-.4s-.7-.3-1.1-.5c-.3-.2-.6-.5-.8-.8s-.3-.8-.3-1.3 0-.8.3-1.2c.2-.3.4-.6.7-.8s.7-.4 1.1-.5.9-.2 1.3-.2Zm-26.2 0c.6 0 1.1 0 1.5.2s.7.3 1 .4c.2.1.3.2.4.4s0 .4 0 .6l-.2.3c-.1.2-.2.3-.4.4h-.6c-.2 0-.4-.2-.7-.3s-.6-.2-1-.2-.7 0-.9.2-.3.4-.3.7.1.4.3.6.5.3.8.4.7.2 1.1.4c.4.1.7.3 1.1.5.3.2.6.5.8.8s.3.7.3 1.3 0 .8-.2 1.1-.4.6-.7.9c-.3.2-.7.4-1.1.6-.4.1-.9.2-1.4.2s-1.3-.1-1.8-.3q-.75-.3-1.2-.6c-.2-.1-.3-.3-.3-.4 0-.2 0-.4.2-.6l.2-.3c.1-.2.3-.3.4-.3.2 0 .3 0 .6.1.2.1.5.3.8.4s.7.2 1.2.2.7 0 .9-.2.3-.4.3-.7-.1-.4-.3-.6c-.2-.1-.5-.3-.8-.4s-.7-.3-1.1-.4-.7-.3-1.1-.5c-.3-.2-.6-.5-.8-.8s-.3-.8-.3-1.3 0-.8.3-1.2c.2-.3.4-.6.7-.8s.7-.4 1.1-.5.9-.2 1.3-.2Zm32.1-3.3c.5 0 .7.2.7.7v4.3c.1-.2.3-.4.4-.6.2-.2.4-.4.7-.6s.6-.3.9-.4.7-.2 1.1-.2c1 0 1.8.3 2.3.8s.8 1.4.8 2.6v5.1c0 .5-.2.7-.7.7h-.8c-.5 0-.7-.2-.7-.7v-4.6c0-.6 0-1-.3-1.3-.2-.3-.6-.5-1.1-.5s-.7 0-1.1.2c-.3.2-.6.4-.8.6-.2.3-.4.6-.5.9-.1.4-.2.8-.2 1.2V16c0 .5-.2.7-.7.7h-.8c-.5 0-.7-.2-.7-.7V5.1c0-.5.2-.7.7-.7zM53.5 7.9c.5 0 .7.2.7.7v7.5c0 .5-.2.7-.7.7h-.8c-.5 0-.7-.2-.7-.7V8.6c0-.5.2-.7.7-.7zm-15 0c.4 0 .7.2.8.7l1.4 5.3v1-1l1.5-5.3c0-.4.4-.6.8-.6h.7c.4 0 .7.2.8.6l1.5 5.3v1-1l1.4-5.3c.1-.4.4-.7.8-.7h.8c.3 0 .5 0 .6.2q.15.3 0 .6l-2.3 7.6c-.1.4-.4.6-.8.6h-1.2c-.4 0-.7-.2-.8-.6l-1.4-4.5v-1 1l-1.4 4.5c-.1.4-.4.6-.8.6h-1.2c-.4 0-.7-.2-.8-.6l-2.3-7.6v-.6c.1-.2.3-.2.6-.2h.8Z" style="stroke-width:0;fill:#fff"/><path d="M6.6 22.2c4.7 2.2 10.5 1.1 14-3 4.1-4.9 3.5-12.3-1.4-16.4l-3.3 3.9c3.9 3.2 4.4 9 1.1 12.8-2.6 3.1-6.8 4.1-10.4 2.7" style="fill:url(#a);fill-rule:evenodd;stroke-width:0"/><path d="M6.6 22.2c4.7 2.2 10.5 1.1 14-3 .4-.5.8-1 1.1-1.6.6-3.4-.7-7-3.5-9.4-.7-.6-1.5-1.1-2.3-1.5 3.9 3.2 4.4 9 1.1 12.8-2.6 3.1-6.8 4.1-10.4 2.7" style="fill-rule:evenodd;stroke-width:0;fill:url(#b)"/><path d="M16.7 1.1C12-1.1 6.2 0 2.7 4.2-1.4 9.1-.8 16.5 4.1 20.6l3.3-3.9C3.5 13.5 3 7.7 6.3 3.9 8.9.8 13.1-.2 16.7 1.1" style="fill-rule:evenodd;stroke-width:0;fill:url(#c)"/><path d="M16.7 1.1C12-1.1 6.2 0 2.7 4.2c-.4.5-.8 1-1.1 1.6-.6 3.4.7 7 3.5 9.4.7.6 1.5 1.1 2.3 1.5-3.9-3.2-4.4-9-1.1-12.8C8.9.8 13.1-.2 16.7 1.1" style="fill-rule:evenodd;stroke-width:0;fill:url(#d)"/></svg>