<svg xmlns="http://www.w3.org/2000/svg" viewBox="0 0 119.4 30.4"><path fill="#ff5b24" d="m6 .6 5.1 14.9 5-14.9H22l-8.8 22.1H8.8L0 .6zm29.3 18.6c3.7 0 5.8-1.8 7.8-4.4 1.1-1.4 2.5-1.7 3.5-.9s1.1 2.3 0 3.7c-2.9 3.8-6.6 6.1-11.3 6.1s-9.6-2.8-12.7-7.7c-.9-1.3-.7-2.7.3-3.4s2.5-.4 3.4 1c2.2 3.3 5.2 5.6 9 5.6m6.9-12.3c0 1.8-1.4 3-3 3s-3-1.2-3-3 1.4-3 3-3 3 1.3 3 3M56.3.6v3C57.8 1.5 60.1 0 63.5 0s9.3 3.6 9.3 11.3-4.8 12-9.8 12-5-1-6.8-3.5v10.6h-5.4V.6zm0 11c0 4.5 2.6 6.9 5.5 6.9s5.6-2.2 5.6-6.9-2.8-6.8-5.6-6.8-5.5 2.1-5.5 6.8m26-11v3C83.8 1.5 86.1 0 89.5 0s9.3 3.6 9.3 11.3-4.8 12-9.8 12-5-1-6.8-3.5v10.6h-5.4V.6zm0 11c0 4.5 2.6 6.9 5.5 6.9s5.6-2.2 5.6-6.9-2.8-6.8-5.6-6.8-5.5 2.1-5.5 6.8m28-11.6c4.5 0 7.7 2.1 9.1 7.3l-4.9.8c-.1-2.6-1.7-3.5-4.1-3.5s-3.2.8-3.2 2.1.7 2 2.8 2.4l3.7.7c3.6.7 5.6 3.1 5.6 6.3 0 4.8-4.3 7.2-8.4 7.2s-9.1-2.2-9.8-7.6l4.9-.8c.3 2.8 2 3.8 4.8 3.8s3.5-.8 3.5-2.1-.7-2.1-3-2.5l-3.4-.6c-3.6-.7-5.8-3.2-5.8-6.4 0-5 4.6-7.1 8.2-7.1"/></svg>