<svg xmlns="http://www.w3.org/2000/svg" viewBox="0 0 674.1 176"><path fill="#ff5b24" d="m33.9 3.4 28.8 84.1L90.9 3.4h33.3L74.5 128.2H49.7L0 3.4zm165.4 105c20.9 0 32.7-10.2 44-24.8 6.2-7.9 14.1-9.6 19.8-5.1s6.2 13 0 20.9c-16.4 21.5-37.3 34.4-63.8 34.4s-54.2-15.8-71.7-43.5c-5.1-7.3-4-15.2 1.7-19.2s14.1-2.3 19.2 5.6c12.4 18.6 29.4 31.6 50.8 31.6ZM238.2 39c0 10.2-7.9 16.9-16.9 16.9s-16.9-6.8-16.9-16.9 7.9-16.9 16.9-16.9 16.9 7.3 16.9 16.9m79.7-35.6v16.9C326.4 8.4 339.4 0 358.5 0S411 20.3 411 63.8s-27.1 67.7-55.3 67.7-28.2-5.6-38.4-19.8v59.8h-30.5V3.4zm0 62.1c0 25.4 14.7 39 31.1 39s31.6-12.4 31.6-39-15.8-38.4-31.6-38.4-31.1 11.9-31.1 38.4M464.6 3.4v16.9C473.1 8.4 486.1 0 505.2 0s52.5 20.3 52.5 63.8-27.1 67.7-55.3 67.7-28.2-5.6-38.4-19.8v59.8h-30.5V3.4zm0 62.1c0 25.4 14.7 39 31.1 39s31.6-12.4 31.6-39-15.8-38.4-31.6-38.4-31.1 11.9-31.1 38.4M622.7 0c25.4 0 43.5 11.9 51.4 41.2l-27.7 4.5c-.6-14.7-9.6-19.8-23.1-19.8s-18.1 4.5-18.1 11.9 4 11.3 15.8 13.5l20.9 4c20.3 4 31.6 17.5 31.6 35.6 0 27.1-24.3 40.6-47.4 40.6s-51.4-12.4-55.3-42.9l27.7-4.5c1.7 15.8 11.3 21.5 27.1 21.5s19.8-4.5 19.8-11.9-4-11.9-16.9-14.1l-19.2-3.4c-20.3-4-32.7-18.1-32.7-36.1C577 11.9 602.4 0 622.7 0"/></svg>