<svg xmlns="http://www.w3.org/2000/svg" viewBox="0 0 666.8 204.3"><path fill="#182a85" d="M484.7 8.4C469.2 2.7 452.8-.1 436.3 0c-53.3 0-91 26.9-91.2 65.4-.3 28.3 26.8 44.3 47.3 53.8 21 9.7 28.1 15.9 28 24.6-.1 13.2-16.8 19.2-32.3 19.2s-32.9-3-50.8-10.4l-6.6-3.1-7.6 44.4c13 5.4 36.3 10 60.5 10.4 56.7 0 93.8-26.7 94.2-67.7.5-22.6-14.2-39.7-45.1-53.9-18.8-9.2-30.4-15.3-30.4-24.6s10-17 30.8-17c13.9-.3 27.6 2.3 40.4 7.6l5 2.2L486.1 8l-1.3.3Zm138.4-4.8h-41.7c-13 0-22.7 3.6-28.4 16.4l-80.1 181.5h56.7l11.3-29.8h69.2c1.6 7 6.6 29.8 6.6 29.8h50zM268.4 1.9h54L288.6 200h-54zM131.2 111.1l5.6 27.5 52.8-135h57.2l-85 197.7h-57.1L58 33.9c-.8-2.8-2.5-5.1-5-6.6C36.2 18.6 18.4 12 0 7.6l.7-4.1h87c11.8.5 21.3 4.2 24.5 16.8l19 91v-.1Zm425.2 20.2 21.5-55.4c-.3.6 4.4-11.4 7.2-18.9l3.7 17.1 12.5 57.1h-44.9Z"/></svg>